# xmcd CD database file
#
# Track frame offsets:
#	150
#	16797
#	31030
#	41627
#	46792
#	66550
#	77322
#	87987
#	95950
#	105195
#	113437
#	123315
#	136945
#	145047
#	151897
#	161760
#	173615
#	179755
#	188130
#	196927
#	204407
#	212130
#	218980
#	229747
#	239302
#	249067
#	263190
#	268497
#	280992
#
# Disc length: 4146 seconds
#
# Revision: 0
# Processed by: cddbd v1.5.2PL0 Copyright (c) Steve Scherf et al.
# Submitted via: CDex 1.51
#
DISCID=8f10301d
DTITLE=Dick Haymes - On The Air Volume 1
DYEAR=1996
DGENRE=Jazz
TTITLE0=Intro - A Sinner Kissed An Angel
TTITLE1=This Is No Laughing Matter
TTITLE2=In My Arms
TTITLE3=How Many Hearts Have You Broken
TTITLE4=In The Blue Of Evening
TTITLE5=Every Day Of My Life
TTITLE6=Here I Go Again
TTITLE7=Wrap Your Troubles In Dreams
TTITLE8=I'll Walk Alone
TTITLE9=Say It Isn't So
TTITLE10=Charllie, My Boy
TTITLE11=Time Waits For No One
TTITLE12=Fine And Dandy
TTITLE13=I'll See You In My Dreams
TTITLE14=Too Tired
TTITLE15=Zing Went The Strings Of My Heart
TTITLE16=I'm Making Believe
TTITLE17=A Romantic Guy I
TTITLE18=Gotta Be This Or That
TTITLE19=P. S.  I Love You
TTITLE20=Look For The Silver Lining
TTITLE21=One More Dream
TTITLE22=A Little On The Lonely Side
TTITLE23=Give Me The Simple Life
TTITLE24=These Foolish Things
TTITLE25=Begin The Beguine
TTITLE26=Thank Dixie For Me
TTITLE27=Deep Night
TTITLE28=My Bonnie Lies Over The Ocean and Sign-Off
EXTD=YEAR: 1996
EXTT0=
EXTT1=
EXTT2=
EXTT3=
EXTT4=
EXTT5=
EXTT6=
EXTT7=
EXTT8=
EXTT9=
EXTT10=
EXTT11=
EXTT12=
EXTT13=
EXTT14=
EXTT15=
EXTT16=
EXTT17=
EXTT18=
EXTT19=
EXTT20=
EXTT21=
EXTT22=
EXTT23=
EXTT24=
EXTT25=
EXTT26=
EXTT27=
EXTT28=
PLAYORDER=
